<?xml version="1.0" encoding="UTF-8" standalone="no"?>
<!-- Created with Inkscape (http://www.inkscape.org/) -->

<svg
   width="320"
   height="240"
   viewBox="0 0 84.666665 63.5"
   version="1.1"
   id="svg5"
   xml:space="preserve"
   inkscape:version="1.2.1 (9c6d41e, 2022-07-14)"
   sodipodi:docname="m5_splash.svg"
   xmlns:inkscape="http://www.inkscape.org/namespaces/inkscape"
   xmlns:sodipodi="http://sodipodi.sourceforge.net/DTD/sodipodi-0.dtd"
   xmlns="http://www.w3.org/2000/svg"
   xmlns:svg="http://www.w3.org/2000/svg"><sodipodi:namedview
     id="namedview7"
     pagecolor="#ffffff"
     bordercolor="#000000"
     borderopacity="0.25"
     inkscape:showpageshadow="2"
     inkscape:pageopacity="0"
     inkscape:pagecheckerboard="0"
     inkscape:deskcolor="#d1d1d1"
     inkscape:document-units="px"
     showgrid="false"
     inkscape:zoom="3.75"
     inkscape:cx="160"
     inkscape:cy="119.86667"
     inkscape:window-width="1763"
     inkscape:window-height="1205"
     inkscape:window-x="2455"
     inkscape:window-y="119"
     inkscape:window-maximized="0"
     inkscape:current-layer="layer1" /><defs
     id="defs2"><clipPath
       id="clip0"><rect
         x="1870"
         y="499"
         width="142"
         height="142"
         id="rect71" /></clipPath><clipPath
       id="clip1"><rect
         x="1870"
         y="499"
         width="142"
         height="142"
         id="rect74" /></clipPath></defs><g
     inkscape:label="Layer 1"
     inkscape:groupmode="layer"
     id="layer1"><rect
       style="fill:#efedea;fill-opacity:1;stroke-width:0.308614"
       id="rect546"
       width="84.666664"
       height="63.5"
       x="0"
       y="0" /><g
       id="g351"
       transform="translate(-17.657828,-40.036182)"><g
         id="g339"
         transform="translate(0.25283225)"><path
           d="m 39.431213,79.264812 c -5.429556,0 -9.773202,-5.931945 -9.773202,-13.346871 0,-7.414927 4.343646,-13.346872 9.773202,-13.346872 h 11.45143 c 5.429554,0 9.773202,5.931945 9.773202,13.346872 0,7.414926 -4.343648,13.346871 -9.773202,13.346871 h -11.45143 m 11.155272,-4.718593 c 3.553891,0 6.318029,-3.909685 6.318029,-8.628278 0,-4.853408 -2.862856,-8.628279 -6.318029,-8.628279 H 39.727371 c -3.553893,0 -6.318029,3.909686 -6.318029,8.628279 0,4.718593 2.862858,8.628278 6.318029,8.628278 h 10.859114"
           id="path59"
           style="fill:#e55844;stroke-width:1.15364" /><g
           style="overflow:hidden"
           id="g115"
           transform="matrix(0.1980058,0,0,0.19800705,62.296277,51.562429)"><g
             clip-path="url(#clipPath105)"
             id="g85"
             transform="translate(-1870,-499)"><path
               d="m 1964.86,640 c -3.28,-0.005 -6.43,-1.306 -8.75,-3.616 -1.14,-1.141 -2.04,-2.495 -2.66,-3.986 -0.61,-1.492 -0.92,-3.087 -0.9,-4.699 0,-1.642 0.33,-3.268 0.99,-4.774 l -65.33,-65.146 c -1.53,0.67 -3.19,1.01 -4.86,0.995 -1.62,0.01 -3.23,-0.305 -4.73,-0.926 -1.5,-0.621 -2.85,-1.534 -3.99,-2.688 -1.15,-1.132 -2.06,-2.48 -2.68,-3.965 -0.63,-1.485 -0.95,-3.078 -0.95,-4.688 0,-3.27 1.31,-6.405 3.63,-8.719 2.32,-2.294 5.46,-3.581 8.73,-3.581 3.28,0 6.42,1.287 8.74,3.581 0.32,0.338 0.62,0.693 0.9,1.061 l 89.3,-23.771 c 0.24,-2.309 1.12,-4.504 2.56,-6.333 1.43,-1.83 3.35,-3.219 5.55,-4.009 2.19,-0.79 4.56,-0.948 6.83,-0.456 2.28,0.492 4.37,1.614 6.04,3.237 1.66,1.623 2.83,3.682 3.38,5.938 0.54,2.257 0.44,4.621 -0.31,6.82 -0.74,2.199 -2.1,4.144 -3.9,5.612 -1.81,1.467 -3.99,2.398 -6.3,2.684 l -24.07,89.182 c 0.56,0.367 1.07,0.789 1.53,1.26 1.71,1.728 2.87,3.92 3.34,6.302 0.46,2.379 0.21,4.844 -0.73,7.083 -0.93,2.24 -2.5,4.156 -4.53,5.508 -2.02,1.352 -4.39,2.08 -6.83,2.094 z"
               fill="#ffffff"
               fill-rule="evenodd"
               fill-opacity="1"
               id="path79"
               style="fill:#efedea;fill-opacity:1" /><path
               d="m 1994.99,505.312 c 1.4,-0.01 2.79,0.261 4.09,0.796 1.29,0.534 2.47,1.322 3.45,2.317 1,0.982 1.79,2.153 2.34,3.443 0.54,1.291 0.82,2.675 0.82,4.074 0,1.399 -0.28,2.783 -0.82,4.074 -0.55,1.29 -1.34,2.461 -2.34,3.443 -1.92,1.945 -4.53,3.062 -7.27,3.113 l -24.62,91.334 c 0.83,0.433 1.58,0.991 2.23,1.656 1.42,1.393 2.42,3.153 2.89,5.085 0.47,1.93 0.4,3.955 -0.23,5.843 -0.62,1.888 -1.76,3.565 -3.28,4.844 -1.53,1.279 -3.38,2.106 -5.36,2.389 -1.97,0.282 -3.98,0.011 -5.81,-0.786 -1.83,-0.797 -3.39,-2.087 -4.52,-3.723 -1.13,-1.638 -1.78,-3.556 -1.88,-5.541 -0.09,-1.986 0.37,-3.957 1.34,-5.692 l -66.87,-66.697 c -1.58,0.909 -3.36,1.389 -5.18,1.391 -1.41,0.006 -2.79,-0.267 -4.09,-0.801 -1.29,-0.535 -2.47,-1.321 -3.46,-2.312 -1.99,-1.998 -3.11,-4.701 -3.11,-7.517 0,-2.818 1.12,-5.52 3.11,-7.518 1,-0.987 2.17,-1.77 3.47,-2.305 1.29,-0.534 2.68,-0.809 4.08,-0.809 1.4,0 2.78,0.275 4.08,0.809 1.29,0.535 2.47,1.318 3.46,2.305 0.55,0.523 1.03,1.113 1.43,1.755 l 91.39,-24.34 c 0,-2.819 1.13,-5.521 3.12,-7.517 0.99,-0.992 2.16,-1.778 3.46,-2.312 1.29,-0.535 2.68,-0.807 4.08,-0.801 z m 0,-3.312 c -3.25,-0.015 -6.41,1.111 -8.92,3.181 -2.51,2.07 -4.21,4.953 -4.8,8.145 l -87.07,23.181 -0.33,-0.331 c -1.63,-1.617 -3.63,-2.809 -5.83,-3.473 -2.19,-0.664 -4.52,-0.779 -6.77,-0.334 -2.25,0.445 -4.36,1.435 -6.14,2.884 -1.78,1.449 -3.17,3.311 -4.05,5.423 -0.89,2.112 -1.23,4.409 -1.02,6.687 0.22,2.278 1,4.468 2.26,6.376 1.27,1.909 2.99,3.477 5.01,4.566 2.02,1.09 4.27,1.667 6.57,1.682 1.51,0.011 3.02,-0.235 4.45,-0.729 l 63.72,63.517 c -0.49,1.404 -0.73,2.882 -0.73,4.369 0.01,2.289 0.59,4.539 1.69,6.552 1.09,2.014 2.66,3.726 4.58,4.988 1.91,1.265 4.11,2.039 6.39,2.254 2.29,0.216 4.59,-0.132 6.71,-1.012 2.12,-0.881 3.99,-2.268 5.44,-4.041 1.45,-1.772 2.45,-3.871 2.9,-6.115 0.44,-2.245 0.33,-4.567 -0.34,-6.756 -0.67,-2.189 -1.86,-4.184 -3.48,-5.803 -0.27,-0.232 -0.5,-0.497 -0.77,-0.696 l 23.42,-86.929 c 2.66,-0.54 5.1,-1.854 7.01,-3.775 1.97,-1.954 3.3,-4.446 3.84,-7.16 0.54,-2.713 0.26,-5.525 -0.81,-8.078 -1.07,-2.553 -2.87,-4.731 -5.19,-6.257 -2.31,-1.527 -5.03,-2.333 -7.8,-2.316 z"
               fill="#ffffff"
               fill-rule="evenodd"
               fill-opacity="1"
               id="path81" /><path
               d="m 2001.82,509.103 c -1.49,-1.482 -3.38,-2.491 -5.44,-2.899 -2.07,-0.409 -4.2,-0.199 -6.14,0.602 -1.95,0.803 -3.61,2.16 -4.78,3.903 -1.16,1.742 -1.79,3.79 -1.79,5.885 -0.01,1.754 0.41,3.484 1.23,5.036 0.82,1.551 2.02,2.876 3.48,3.856 1.46,0.979 3.14,1.584 4.89,1.759 1.75,0.175 3.52,-0.085 5.15,-0.756 1.62,-0.671 3.06,-1.733 4.17,-3.091 1.12,-1.358 1.88,-2.97 2.21,-4.692 0.34,-1.721 0.24,-3.499 -0.28,-5.175 -0.52,-1.675 -1.45,-3.197 -2.7,-4.428 z m -4.07,10.923 c -0.88,0.89 -2.07,1.4 -3.31,1.419 -1.25,-0.03 -2.44,-0.538 -3.32,-1.419 -0.88,-0.88 -1.38,-2.06 -1.42,-3.3 0.04,-1.239 0.55,-2.416 1.42,-3.3 0.89,-0.869 2.07,-1.375 3.32,-1.419 1.22,0.032 2.39,0.521 3.26,1.371 0.88,0.85 1.41,1.999 1.47,3.216 -0.02,1.244 -0.53,2.428 -1.42,3.3 z m -106.61,18.975 c -0.99,-0.984 -2.16,-1.764 -3.45,-2.297 -1.29,-0.532 -2.68,-0.806 -4.07,-0.806 -1.4,0 -2.78,0.274 -4.07,0.806 -1.29,0.533 -2.46,1.313 -3.45,2.297 -1.98,1.991 -3.1,4.684 -3.1,7.491 0,2.807 1.12,5.5 3.1,7.491 2,1.987 4.7,3.103 7.52,3.103 2.82,0 5.52,-1.116 7.52,-3.103 1.99,-1.987 3.11,-4.681 3.11,-7.491 0,-2.81 -1.12,-5.504 -3.11,-7.491 z m -4.08,11.022 c -0.45,0.451 -0.99,0.809 -1.58,1.053 -0.59,0.244 -1.22,0.37 -1.86,0.37 -0.64,0 -1.27,-0.126 -1.86,-0.37 -0.6,-0.244 -1.13,-0.602 -1.59,-1.053 -0.9,-0.914 -1.41,-2.147 -1.41,-3.432 0,-1.285 0.51,-2.518 1.41,-3.432 0.46,-0.451 0.99,-0.808 1.59,-1.053 0.59,-0.244 1.22,-0.37 1.86,-0.37 0.64,0 1.27,0.126 1.86,0.37 0.59,0.245 1.13,0.602 1.58,1.053 0.91,0.914 1.42,2.147 1.42,3.432 0,1.285 -0.51,2.518 -1.42,3.432 z m 70.15,69.894 c -1.49,1.482 -2.5,3.368 -2.91,5.423 -0.41,2.055 -0.2,4.185 0.61,6.12 0.8,1.937 2.16,3.59 3.91,4.753 1.75,1.166 3.8,1.787 5.91,1.787 2.1,0 4.16,-0.621 5.9,-1.787 1.75,-1.163 3.12,-2.816 3.92,-4.753 0.8,-1.935 1.02,-4.065 0.6,-6.12 -0.4,-2.055 -1.42,-3.941 -2.9,-5.423 -0.99,-0.988 -2.16,-1.773 -3.45,-2.307 -1.29,-0.535 -2.68,-0.81 -4.07,-0.81 -1.4,0 -2.78,0.275 -4.08,0.81 -1.28,0.534 -2.45,1.319 -3.44,2.307 z m 10.96,10.922 c -0.92,0.903 -2.15,1.411 -3.44,1.411 -1.29,0 -2.53,-0.508 -3.45,-1.411 -0.45,-0.45 -0.81,-0.986 -1.05,-1.574 -0.25,-0.589 -0.37,-1.219 -0.37,-1.856 0,-0.638 0.12,-1.27 0.37,-1.859 0.24,-0.589 0.6,-1.124 1.05,-1.574 0.92,-0.91 2.16,-1.422 3.45,-1.422 1.29,0 2.53,0.512 3.44,1.422 0.91,0.909 1.43,2.144 1.43,3.433 0,1.285 -0.52,2.52 -1.43,3.43 z m 19.54,-100.847 c 1.76,0.846 3.65,1.35 5.6,1.485 l -22.19,82.5 c -1.76,-0.829 -3.66,-1.311 -5.6,-1.419 z m -33.58,86.856 c -0.68,0.686 -1.29,1.437 -1.82,2.243 l -60.34,-60.125 c 0.8,-0.529 1.56,-1.137 2.25,-1.815 0.72,-0.688 1.37,-1.439 1.95,-2.244 l 60.21,59.994 c -0.81,0.529 -1.56,1.137 -2.25,1.815 z m -55.61,-71.676 c -0.19,-1.937 -0.75,-3.819 -1.65,-5.544 l 82.53,-22.011 c 0.13,1.927 0.64,3.81 1.49,5.544 z m 85.22,-18.018 c -0.69,-0.686 -1.31,-1.437 -1.86,-2.244 l -27.25,27.291 c -1.6,-0.878 -3.38,-1.343 -5.2,-1.353 -1.4,-0.002 -2.78,0.271 -4.07,0.804 -1.29,0.532 -2.47,1.313 -3.45,2.298 -0.74,0.737 -1.37,1.583 -1.86,2.508 l -41.46,-9.768 c -0.04,1.893 -0.43,3.762 -1.16,5.511 l 41.4,9.9 c 0.15,2.609 1.28,5.068 3.15,6.898 1.87,1.83 4.36,2.9 6.98,3.002 l 9.64,41.91 c 1.78,-0.781 3.69,-1.218 5.63,-1.287 l -9.64,-41.91 c 0.86,-0.489 1.65,-1.088 2.35,-1.782 0.99,-0.982 1.78,-2.149 2.31,-3.435 0.54,-1.286 0.81,-2.664 0.81,-4.056 0.01,-1.816 -0.46,-3.602 -1.36,-5.181 l 27.26,-27.159 c -0.79,-0.538 -1.54,-1.146 -2.22,-1.815 z m -39.18,34.188 c 0.02,-1.244 0.53,-2.43 1.42,-3.3 0.45,-0.451 0.99,-0.809 1.58,-1.053 0.59,-0.244 1.23,-0.37 1.87,-0.37 0.64,0 1.27,0.126 1.86,0.37 0.59,0.244 1.13,0.602 1.58,1.053 0.89,0.87 1.41,2.056 1.42,3.3 -0.03,1.242 -0.54,2.424 -1.42,3.3 -0.45,0.451 -0.99,0.809 -1.58,1.053 -0.59,0.244 -1.22,0.37 -1.86,0.37 -0.64,0 -1.28,-0.126 -1.87,-0.37 -0.59,-0.244 -1.13,-0.602 -1.58,-1.053 -0.88,-0.876 -1.39,-2.058 -1.42,-3.3 z"
               fill="#2d5967"
               fill-rule="evenodd"
               fill-opacity="1"
               id="path83" /></g></g><path
           style="fill:#000000;stroke-width:0.265871"
           d="m 275.50688,262.12613 -22.3986,-22.22273 1.52562,-1.44269 1.52563,-1.4427 22.25869,22.25751 22.25869,22.2575 -1.25138,1.37924 c -0.68826,0.75859 -1.31183,1.39215 -1.38571,1.40792 -0.0739,0.0158 -10.2137,-9.97154 -22.53294,-22.19405 z"
           id="path422"
           transform="matrix(0.26458333,0,0,0.26458333,-0.25283225,0)" /><path
           style="fill:#000000;stroke-width:0.265871"
           d="m 245.37764,238.05915 c -2.4245,-0.35969 -4.72854,-2.1065 -5.88943,-4.46507 -0.45466,-0.92372 -0.60035,-1.67836 -0.59541,-3.08406 0.0289,-8.22142 10.86856,-10.79648 14.6874,-3.48912 0.96618,1.84878 1.02034,4.75136 0.12266,6.57318 -1.57447,3.19535 -4.89167,4.97446 -8.32522,4.46507 z m 3.24203,-4.42542 c 2.52784,-1.46971 2.15489,-5.42209 -0.61867,-6.55652 -1.0961,-0.44832 -1.39134,-0.47099 -2.35886,-0.18111 -1.39718,0.4186 -2.25607,1.27171 -2.61232,2.59472 -0.8959,3.32711 2.57214,5.89745 5.58985,4.14291 z"
           id="path424"
           transform="matrix(0.26458333,0,0,0.26458333,-0.25283225,0)" /><path
           style="fill:#000000;stroke-width:0.265871"
           d="m 257.42684,227.36182 c -0.30713,-1.04292 -0.51826,-1.93639 -0.46917,-1.98547 0.0959,-0.0959 59.38292,-15.94205 60.49211,-16.16824 0.62728,-0.12791 0.68923,-0.0336 1.10094,1.67651 0.23994,0.99663 0.35958,1.88789 0.26587,1.98059 -0.0937,0.0927 -13.27117,3.66052 -29.28324,7.92851 -16.01208,4.26798 -29.66079,7.91845 -30.33048,8.11215 l -1.21761,0.35218 z"
           id="path426"
           transform="matrix(0.26458333,0,0,0.26458333,-0.25283225,0)" /><path
           style="fill:#000000;stroke-width:0.265871"
           d="m 302.72603,280.18063 c -0.18206,-0.59246 -7.07765,-30.58514 -7.07765,-30.78458 0,-0.0782 -0.38884,-0.14331 -0.86409,-0.14473 -1.30605,-0.004 -3.39261,-1.10438 -4.61132,-2.43202 -1.00166,-1.09119 -1.7151,-2.53932 -2.07517,-4.21216 -0.13772,-0.63982 -0.51377,-0.75277 -10.05506,-3.02017 -5.4516,-1.29553 -12.37495,-2.94866 -15.38522,-3.67364 l -5.47323,-1.31813 0.35521,-1.36939 c 0.19537,-0.75316 0.35522,-1.62304 0.35522,-1.93306 0,-0.53889 0.68085,-0.40281 15.48697,3.09524 13.95489,3.29693 15.5106,3.61487 15.72575,3.21385 0.56691,-1.05667 2.59321,-2.68184 4.00009,-3.20822 1.82386,-0.68239 3.56692,-0.6985 5.33249,-0.0493 l 1.32935,0.48882 10.13714,-10.10399 10.13713,-10.10398 1.36889,1.42019 1.36888,1.4202 -10.07267,10.11147 -10.07268,10.11148 0.52003,1.32936 c 0.39172,1.00132 0.4907,1.75579 0.40113,3.05751 -0.15026,2.18371 -0.92121,3.74429 -2.645,5.3541 l -1.32041,1.2331 3.56722,15.51605 3.56722,15.51605 -1.48441,0.30903 c -0.81642,0.16996 -1.68297,0.38831 -1.92566,0.48521 -0.29558,0.11802 -0.49041,0.0163 -0.59015,-0.30831 z m -4.68482,-35.67222 c 2.04327,-1.46565 1.98582,-4.65846 -0.10852,-6.03071 -1.64447,-1.07751 -4.29994,-0.48731 -5.28117,1.17377 -0.58774,0.99497 -0.58909,2.78712 -0.003,3.77955 1.01096,1.71142 3.74666,2.25799 5.39254,1.07739 z"
           id="path428"
           transform="matrix(0.26458333,0,0,0.26458333,-0.25283225,0)" /><path
           style="fill:#000000;stroke-width:0.265871"
           d="m 309.79965,280.12125 c -1.56641,-0.39922 -1.6589,-0.46562 -1.5181,-1.0898 0.0825,-0.36557 3.77293,-14.12439 8.20105,-30.57515 6.07927,-22.58492 8.1441,-29.89882 8.43075,-29.86289 0.20879,0.0262 1.10025,0.20564 1.98103,0.39881 l 1.6014,0.35122 -8.24118,30.64162 c -4.53265,16.85289 -8.36397,30.62355 -8.51405,30.60147 -0.15007,-0.0221 -1.02348,-0.23146 -1.9409,-0.46528 z"
           id="path430"
           transform="matrix(0.26458333,0,0,0.26458333,-0.25283225,0)" /><path
           style="fill:#000000;stroke-width:0.265871"
           d="m 327.53973,215.66585 c -5.69069,-1.57197 -7.71809,-8.3032 -3.87258,-12.85744 0.39412,-0.46676 1.44875,-1.21452 2.34362,-1.66169 5.1333,-2.56514 11.17452,1.15531 11.19855,6.89657 0.021,5.01796 -4.94029,8.92896 -9.66959,7.62256 z m 3.38834,-4.17715 c 1.74507,-0.60834 2.71933,-3.28017 1.82599,-5.00769 -1.24256,-2.40284 -4.8667,-2.5292 -6.27543,-0.2188 -1.82963,3.00069 1.0686,6.40505 4.44944,5.22649 z"
           id="path432"
           transform="matrix(0.26458333,0,0,0.26458333,-0.25283225,0)" /><path
           style="fill:#000000;stroke-width:0.265871"
           d="m 303.97345,297.91798 c -2.92359,-1.47899 -4.41521,-3.83252 -4.41521,-6.96646 0,-5.72891 6.03997,-9.42742 11.19166,-6.8531 1.72619,0.86259 2.63955,1.76511 3.58542,3.54286 0.84247,1.58341 0.83481,5.1392 -0.0145,6.73715 -1.41585,2.66385 -3.66303,4.09114 -6.70825,4.26073 -1.82213,0.10147 -2.13584,0.0393 -3.63911,-0.72118 z m 5.1703,-3.73046 c 1.8526,-1.12954 2.40326,-3.19932 1.34985,-5.07362 -1.33934,-2.38303 -4.93889,-2.47707 -6.34812,-0.16586 -0.66926,1.09762 -0.67966,2.98055 -0.0224,4.05834 0.98217,1.61061 3.388,2.1766 5.02068,1.18114 z"
           id="path434"
           transform="matrix(0.26458333,0,0,0.26458333,-0.25283225,0)" /></g><text
         xml:space="preserve"
         style="font-style:normal;font-variant:normal;font-weight:bold;font-stretch:normal;font-size:4.23333px;font-family:sans-serif;-inkscape-font-specification:'sans-serif, Bold';font-variant-ligatures:normal;font-variant-caps:normal;font-variant-numeric:normal;font-variant-east-asian:normal;fill:#000000;stroke-width:0.264583"
         x="59.971523"
         y="85.249939"
         id="text279"><tspan
           sodipodi:role="line"
           id="tspan277"
           style="font-style:normal;font-variant:normal;font-weight:bold;font-stretch:normal;font-size:4.23333px;font-family:sans-serif;-inkscape-font-specification:'sans-serif, Bold';font-variant-ligatures:normal;font-variant-caps:normal;font-variant-numeric:normal;font-variant-east-asian:normal;text-align:center;text-anchor:middle;stroke-width:0.264583"
           x="59.971523"
           y="85.249939">Oracle Cloud Infrastructure</tspan><tspan
           sodipodi:role="line"
           style="font-style:normal;font-variant:normal;font-weight:bold;font-stretch:normal;font-size:4.23333px;font-family:sans-serif;-inkscape-font-specification:'sans-serif, Bold';font-variant-ligatures:normal;font-variant-caps:normal;font-variant-numeric:normal;font-variant-east-asian:normal;text-align:center;text-anchor:middle;stroke-width:0.264583"
           x="59.971523"
           y="90.541603"
           id="tspan331">Internet of Things Platform</tspan></text></g><path
       style="fill:#efedea;fill-opacity:1;stroke-width:0.070345"
       d="m 61.576675,35.478433 c -0.292933,-0.299992 -0.28747,-0.321133 0.197988,-0.766019 l 0.271759,-0.249047 -5.979475,-5.967529 -5.979475,-5.967528 -0.32399,0.360354 c -0.178194,0.198197 -0.359291,0.360355 -0.402437,0.360355 -0.04314,0 -0.195114,-0.113925 -0.337708,-0.253162 l -0.259263,-0.253164 0.271788,-0.245546 c 0.149484,-0.135049 0.359783,-0.42473 0.467331,-0.643734 0.256413,-0.522139 0.273486,-1.27666 0.04042,-1.786033 l -0.152215,-0.332668 0.29436,-0.07529 c 0.161899,-0.04141 0.33392,-0.08856 0.382273,-0.104772 0.100211,-0.03361 0.270314,0.331395 0.386175,0.828656 0.05903,0.253331 0.105066,0.326649 0.188878,0.300794 0.06095,-0.01881 3.734977,-1.002757 8.164491,-2.186564 4.429514,-1.183804 8.061203,-2.159913 8.070419,-2.169128 0.0092,-0.0092 -0.04581,-0.181399 -0.122264,-0.38263 -0.07646,-0.201229 -0.139023,-0.459272 -0.139023,-0.573426 0,-0.189214 0.03221,-0.217123 0.364493,-0.315799 0.200472,-0.05953 0.374576,-0.108244 0.386897,-0.108244 0.01233,0 0.0227,0.134536 0.0231,0.298966 0.0021,0.898957 0.996725,1.879124 1.908849,1.881042 l 0.326776,7.94e-4 -0.109942,0.410324 -0.109939,0.410323 -0.357434,-0.06497 c -0.196588,-0.03573 -0.465214,-0.109998 -0.596948,-0.165039 -0.13173,-0.05504 -0.252521,-0.08707 -0.268419,-0.07117 -0.0444,0.0444 -4.381225,16.206208 -4.381225,16.327281 0,0.07027 0.06863,0.106384 0.202189,0.106384 0.111207,0 0.339296,0.04837 0.50687,0.107497 0.167574,0.05912 0.345657,0.09177 0.395743,0.07255 0.115295,-0.04424 0.114451,-0.02643 -0.02172,0.458861 l -0.112776,0.401932 -0.313809,-0.138811 c -0.710719,-0.314386 -1.705235,-0.12727 -2.282894,0.429519 l -0.341572,0.329229 z m 1.27017,-1.291529 c 0.189925,-0.05762 0.438684,-0.104756 0.552799,-0.104756 0.179858,0 0.202274,-0.02106 0.168365,-0.158277 -0.02151,-0.08705 -0.452131,-1.952342 -0.956921,-4.145089 l -0.917803,-3.986813 0.409334,-0.40975 c 0.618099,-0.618723 0.80417,-1.378416 0.533144,-2.176706 l -0.111972,-0.329803 2.679922,-2.680602 2.679922,-2.6806 -0.428413,-0.45022 -0.428413,-0.450218 -2.690379,2.689696 -2.690378,2.689699 -0.363895,-0.119026 c -0.805839,-0.263575 -1.846032,0.03114 -2.2958,0.650457 -0.117213,0.161402 -0.253574,0.295392 -0.303025,0.297755 -0.06769,0.0032 -6.919941,-1.595113 -7.993269,-1.864501 -0.165137,-0.04144 -0.182358,-0.02633 -0.182358,0.160126 0,0.113242 -0.04964,0.373036 -0.110303,0.577324 -0.06067,0.204287 -0.100237,0.380026 -0.08793,0.390533 0.0123,0.0105 1.842368,0.453466 4.066804,0.984358 2.22444,0.530894 4.068358,0.980046 4.097597,0.998114 0.02924,0.01807 0.05316,0.11974 0.05316,0.225928 0,0.284401 0.324196,0.885402 0.615648,1.141301 0.30784,0.270285 0.898303,0.555011 1.152935,0.555953 0.143759,5.29e-4 0.19684,0.04448 0.234493,0.194136 0.02677,0.106397 0.441182,1.902833 0.920922,3.992078 0.479739,2.089245 0.889222,3.869854 0.909955,3.956907 0.04448,0.186738 0.04242,0.186516 0.485857,0.052 z"
       id="path1827" /><path
       style="fill:#efedea;fill-opacity:1;stroke:none;stroke-width:0.070345"
       d="m 63.252549,39.567047 c -0.83388,-0.172087 -1.575737,-0.746712 -1.951136,-1.511305 -0.193296,-0.393695 -0.206777,-0.475194 -0.206634,-1.24927 l 1.4e-4,-0.828098 -6.245836,-6.241574 c -5.454764,-5.451051 -6.27,-6.239555 -6.436706,-6.225635 -1.169501,0.09764 -1.744867,-0.02249 -2.395604,-0.500171 -0.727898,-0.534326 -1.103585,-1.359667 -1.053259,-2.31389 0.06395,-1.212447 0.808287,-2.141926 1.986495,-2.480603 0.793067,-0.227968 1.818216,-0.01394 2.4263,0.506555 l 0.299511,0.256374 1.523876,-0.403411 c 2.817236,-0.745791 15.521318,-4.125841 15.637854,-4.160607 0.06459,-0.01926 0.148381,-0.164933 0.190463,-0.3311 0.09007,-0.35565 0.391482,-0.84284 0.72042,-1.164457 1.327166,-1.297617 3.532706,-0.883933 4.371525,0.819949 0.21091,0.428418 0.229868,0.522282 0.229868,1.138161 0,0.617093 -0.01871,0.709236 -0.231918,1.14233 -0.359918,0.731092 -0.874977,1.171758 -1.772915,1.516833 -0.166637,0.06404 -0.297082,0.518371 -2.486332,8.659703 l -2.310468,8.592119 0.260956,0.288848 c 0.40999,0.453811 0.618132,0.981636 0.653804,1.657964 0.05137,0.973953 -0.307782,1.759575 -1.056294,2.310599 -0.627544,0.461973 -1.461645,0.663588 -2.15411,0.520686 z m 1.33609,-0.687879 c 1.431218,-0.629179 1.759741,-2.401414 0.650735,-3.51042 l -0.370869,-0.370867 2.404104,-8.933661 c 2.378126,-8.837113 2.406007,-8.933672 2.579968,-8.934495 0.09672,-5.29e-4 0.367631,-0.09155 0.602015,-0.202436 0.491881,-0.232703 0.879919,-0.639868 1.13865,-1.194778 0.153993,-0.33028 0.171677,-0.446847 0.144068,-0.949659 -0.03848,-0.700818 -0.19023,-1.025972 -0.687459,-1.473023 -0.860763,-0.773901 -2.114722,-0.722 -2.984711,0.123534 -0.362892,0.35269 -0.52894,0.644486 -0.638427,1.121908 l -0.07925,0.345585 -0.453308,0.122341 c -0.249317,0.06729 -4.269785,1.138275 -8.934373,2.379972 l -8.481065,2.257629 -0.355513,-0.342667 c -1.055188,-1.017067 -2.781819,-0.676183 -3.448172,0.680767 -0.163277,0.332497 -0.196741,0.49144 -0.195535,0.928735 0.0024,0.88223 0.414486,1.541595 1.193768,1.910263 0.534991,0.253095 1.233946,0.275754 1.718945,0.05572 l 0.311407,-0.141275 0.268941,0.262613 c 0.147915,0.144438 0.268941,0.296201 0.268941,0.337251 0,0.11449 11.875929,11.960862 11.991652,11.961804 0.05587,5.29e-4 0.210579,0.106476 0.3438,0.235598 l 0.242218,0.234768 -0.145074,0.327162 c -0.183888,0.41469 -0.195326,1.187035 -0.0236,1.593374 0.273505,0.647155 0.722511,1.074412 1.343388,1.278313 0.388215,0.127495 1.186526,0.0754 1.594757,-0.10406 z"
       id="path1831" /><path
       style="fill:#efedea;fill-opacity:1;stroke:none;stroke-width:0.070345"
       d="M 2.636932e-7,31.760762 V 0.03517343 H 42.312514 84.625027 V 31.760762 63.486354 H 42.312514 2.636932e-7 Z M 49.588219,51.263803 c 0.494599,-0.252201 0.529871,-0.367671 0.555808,-1.819529 l 0.02323,-1.299729 -0.515633,-0.0038 c -0.283599,-0.0021 -0.695351,-0.0085 -0.915006,-0.01429 -0.68413,-0.01802 -1.071904,0.413464 -1.064646,1.184674 0.0048,0.515689 0.155895,0.874456 0.43842,1.041347 0.227899,0.134623 0.850498,0.162203 1.065395,0.04719 0.164605,-0.0881 0.188172,0.04502 0.0431,0.243417 -0.105746,0.144621 -0.531669,0.180911 -1.014963,0.08648 l -0.298966,-0.05841 v 0.31758 c 0,0.376708 0.0042,0.378658 0.84414,0.389969 0.44282,0.006 0.660506,-0.02387 0.83914,-0.114943 z m -32.89887,-0.720151 c 0.09863,-5.29e-4 0.123105,-0.06283 0.123105,-0.312904 v -0.312132 l -0.245613,0.03986 c -0.385265,0.06252 -0.457837,-0.04692 -0.457837,-0.69042 V 48.71391 h 0.351723 0.351727 v -0.281384 -0.281379 h -0.351727 -0.351723 v -0.316553 -0.316553 h -0.386898 -0.386897 v 0.316553 c 0,0.290758 -0.01434,0.316553 -0.175864,0.316553 -0.158276,0 -0.17586,0.02814 -0.17586,0.281379 0,0.253243 0.01759,0.281381 0.17586,0.281381 h 0.175864 v 0.73083 c 0,0.594992 0.0232,0.759473 0.124796,0.884946 0.147581,0.182256 0.516387,0.287335 0.860033,0.245042 0.135414,-0.01667 0.301604,-0.03065 0.369311,-0.03107 z m 2.602767,-0.0641 c 0.171646,-0.06555 0.193447,-0.109752 0.193447,-0.392174 0,-0.353689 -0.01648,-0.363013 -0.376047,-0.212775 -0.367665,0.15362 -0.832569,0.135895 -1.056539,-0.04028 -0.369872,-0.290941 -0.262472,-0.346618 0.668634,-0.346618 h 0.853979 l -0.04132,-0.400346 c -0.07467,-0.723482 -0.471985,-1.035412 -1.255472,-0.985671 -0.59373,0.03769 -0.908716,0.222052 -1.117986,0.654341 -0.358995,0.741585 0.01537,1.594911 0.785797,1.791116 0.288851,0.07357 1.079957,0.03382 1.345504,-0.06759 z m 7.948983,5.29e-4 c 0.171555,-0.06608 0.193447,-0.110535 0.193447,-0.392806 0,-0.35369 -0.01648,-0.363013 -0.376047,-0.212775 -0.373938,0.156242 -0.899179,0.137938 -1.087932,-0.03791 -0.322189,-0.300162 -0.224364,-0.348983 0.699249,-0.348983 h 0.853201 l -0.04858,-0.36931 c -0.09491,-0.721543 -0.451575,-1.038585 -1.165413,-1.035937 -0.811636,0.003 -1.276236,0.411602 -1.324179,1.164537 -0.04423,0.694669 0.170413,1.029425 0.814816,1.270768 0.291926,0.109333 1.115785,0.08785 1.441435,-0.03758 z m 1.969658,0.08789 c 0.257242,-0.04252 0.263795,-0.05113 0.263795,-0.346527 v -0.302927 l -0.256757,0.04167 c -0.359132,0.05828 -0.446693,-0.08526 -0.446693,-0.732235 v -0.514148 h 0.351726 0.351724 v -0.281382 -0.281379 h -0.351724 -0.351726 v -0.316552 -0.316553 h -0.386898 -0.386897 v 0.316553 c 0,0.290758 -0.01434,0.316552 -0.175863,0.316552 -0.158274,0 -0.175861,0.02814 -0.175861,0.281379 0,0.250492 0.01863,0.281382 0.169638,0.281382 0.167626,0 0.16992,0.0092 0.19345,0.777944 0.02246,0.73406 0.03373,0.78545 0.19967,0.910997 0.09673,0.07318 0.27083,0.145386 0.386898,0.160457 0.11607,0.01508 0.242691,0.03212 0.281381,0.03789 0.03869,0.0058 0.18905,-0.0091 0.334137,-0.03312 z m 3.922805,-0.113125 c 0.431073,-0.218498 0.596863,-0.526246 0.596863,-1.107935 0,-0.580705 -0.165433,-0.88783 -0.599543,-1.113054 -0.265033,-0.137502 -0.39121,-0.158428 -0.796205,-0.132035 -0.509913,0.03323 -0.724096,0.140046 -0.987078,0.492283 -0.170741,0.228688 -0.236107,0.911691 -0.120711,1.261338 0.221361,0.670735 1.174678,0.970431 1.906674,0.599403 z m 19.007479,0.08484 c 0.143886,-0.03996 0.357558,-0.153392 0.474829,-0.252069 0.182137,-0.153257 0.21322,-0.227988 0.21322,-0.512622 0,-0.443973 -0.168881,-0.59632 -0.826553,-0.745638 -0.495988,-0.112604 -0.651288,-0.246277 -0.398732,-0.343191 0.221667,-0.08506 0.470622,-0.03644 1.031835,0.201533 0.107833,0.04573 0.123105,0.0084 0.123105,-0.301223 v -0.353422 l -0.355187,-0.07617 c -0.688991,-0.147762 -1.227394,-0.052 -1.556171,0.276773 -0.263953,0.263953 -0.278733,0.699227 -0.03211,0.945846 0.164968,0.164967 0.576514,0.317989 0.857266,0.318751 0.07966,2.09e-4 0.204071,0.04371 0.276471,0.09665 0.126722,0.09266 0.125561,0.09951 -0.0311,0.183353 -0.187682,0.100444 -0.61853,0.051 -0.921681,-0.105762 -0.316654,-0.163745 -0.357622,-0.135699 -0.334103,0.228727 0.02069,0.320691 0.03121,0.335164 0.302821,0.416664 0.355425,0.10665 0.838353,0.115604 1.176094,0.0218 z m 8.305607,-0.05967 c 0.206245,-0.105151 0.26108,-0.112538 0.26108,-0.03517 0,0.07181 0.103201,0.09794 0.386898,0.09794 h 0.386897 v -0.975345 c 0,-1.161483 -0.05237,-1.277069 -0.642784,-1.418709 -0.342828,-0.08224 -1.318009,-0.05494 -1.473666,0.04126 -0.03534,0.02183 -0.06424,0.183674 -0.06424,0.359635 0,0.24929 0.02233,0.311359 0.101116,0.281122 0.543959,-0.208735 1.066091,-0.215471 1.23173,-0.01588 0.08728,0.105172 0.02061,0.127651 -0.63169,0.212992 -0.459869,0.06017 -0.747802,0.258802 -0.844894,0.582875 -0.217545,0.726096 0.552398,1.245116 1.289556,0.869291 z m 3.092466,0.06354 c 0.09863,-5.29e-4 0.123105,-0.06283 0.123105,-0.312904 V 49.91852 l -0.245613,0.03986 c -0.385265,0.06252 -0.457837,-0.04692 -0.457837,-0.69042 v -0.554156 h 0.351723 0.351727 v -0.281382 -0.281379 h -0.351727 -0.351723 v -0.316552 -0.316553 h -0.386898 -0.386898 v 0.316553 c 0,0.290758 -0.01434,0.316552 -0.175863,0.316552 -0.158276,0 -0.17586,0.02814 -0.17586,0.281379 0,0.253244 0.01759,0.281382 0.17586,0.281382 h 0.175863 v 0.73083 c 0,0.594992 0.0232,0.759473 0.124797,0.884946 0.147581,0.182256 0.516387,0.287335 0.860033,0.245041 0.135414,-0.01667 0.301604,-0.03065 0.369311,-0.03107 z m 3.924855,-5.29e-4 c 0.567359,-0.157615 0.8953,-0.808377 0.763334,-1.514756 -0.07649,-0.409419 -0.238935,-0.629367 -0.595215,-0.805902 -0.558795,-0.276876 -1.466456,-0.113448 -1.74688,0.314534 -0.324717,0.49558 -0.271198,1.32453 0.110739,1.715182 0.325112,0.332534 0.904777,0.447416 1.468022,0.290942 z M 11.747615,50.226186 v -0.316552 h -0.281382 -0.281379 v -0.949659 -0.949656 h 0.281379 0.281382 V 47.693767 47.377214 H 10.797956 9.848298 v 0.316553 c 0,0.314878 0.00132,0.316552 0.246208,0.316552 h 0.246208 v 0.949656 0.949659 h -0.246208 c -0.2449036,0 -0.246208,0.0016 -0.246208,0.316552 v 0.316553 h 0.949658 0.949659 z m 1.336553,-0.526248 c 0,-0.830786 0.0024,-0.843402 0.168709,-0.885142 0.293468,-0.07366 0.490289,-0.0082 0.542433,0.180353 0.02675,0.09672 0.05179,0.484502 0.05564,0.861727 l 0.007,0.685863 h 0.386898 0.386897 v -0.983721 c 0,-0.97377 -0.0019,-0.985909 -0.193447,-1.200208 -0.245758,-0.275026 -0.642144,-0.342389 -1.039006,-0.17657 -0.177667,0.07424 -0.28661,0.08952 -0.302313,0.04241 -0.01349,-0.0405 -0.211841,-0.07364 -0.440756,-0.07364 h -0.416208 v 1.195864 1.195866 h 0.422071 0.422069 z m 7.753233,0.05142 0.0199,-0.791382 0.439656,-0.02096 0.439658,-0.02093 v -0.383543 -0.38354 l -0.228621,2.65e-4 c -0.125744,1.42e-4 -0.331502,0.06299 -0.457243,0.139657 -0.22797,0.138994 -0.228621,0.138994 -0.228621,-2.64e-4 0,-0.123794 -0.04794,-0.139655 -0.422071,-0.139655 h -0.422077 v 1.195863 1.195867 h 0.419764 0.419767 z m 2.095066,-0.04523 c 0,-0.91222 0.0046,-0.922009 0.429565,-0.922009 0.281628,0 0.344231,0.192735 0.344231,1.059754 v 0.69887 h 0.386897 0.386898 v -0.946348 c 0,-1.060522 -0.05147,-1.246323 -0.389689,-1.406819 -0.305115,-0.144788 -0.579909,-0.137372 -0.896821,0.02421 -0.206243,0.105151 -0.261081,0.112538 -0.261081,0.03517 0,-0.0728 -0.108317,-0.09794 -0.422068,-0.09794 h -0.422071 v 1.195863 1.195867 h 0.422071 0.422068 z m 12.169685,-0.07787 v -0.914484 h 0.281379 0.28138 v -0.281382 -0.281379 h -0.314344 c -0.269782,0 -0.307906,-0.01746 -0.268925,-0.123103 0.07073,-0.191711 0.174617,-0.23359 0.46455,-0.187272 l 0.268176,0.04284 -0.02196,-0.305891 -0.02196,-0.30589 -0.422072,-0.01908 c -0.602668,-0.02725 -0.881925,0.127132 -1.02,0.563888 -0.07285,0.230436 -0.143629,0.333883 -0.228621,0.334137 -0.09666,2.64e-4 -0.123106,0.06081 -0.123106,0.281749 0,0.234485 0.02344,0.281382 0.14069,0.281382 0.133477,0 0.140692,0.0469 0.140692,0.914485 v 0.914486 h 0.422069 0.422071 z m 3.939318,-0.316556 v -1.231038 h 0.457242 0.457243 V 47.72894 47.377214 h -1.371727 -1.371727 v 0.351726 0.351724 h 0.457242 0.457242 v 1.231038 1.231037 h 0.457243 0.457242 z m 2.110351,0.394422 c 0,-0.910918 0.0051,-0.922009 0.425347,-0.922009 0.291539,0 0.348448,0.165832 0.348448,1.015378 v 0.743246 h 0.430051 0.430054 l -0.02798,-0.967245 c -0.0312,-1.078391 -0.102344,-1.282155 -0.495538,-1.419222 -0.314381,-0.109594 -0.553279,-0.09342 -0.8493,0.0575 l -0.26108,0.133106 V 47.791702 47.236524 H 40.72975 40.307681 v 1.653106 1.653109 h 0.422069 0.422071 z m 3.024833,-0.359251 v -1.195864 h -0.422068 -0.422072 v 1.195864 1.195866 h 0.422072 0.422068 z m 1.406901,0.359251 c 0,-0.919729 0.0011,-0.922009 0.455469,-0.922009 0.147508,0 0.248587,0.0408 0.275628,0.11127 0.02349,0.0612 0.0427,0.456891 0.0427,0.879314 v 0.76804 h 0.42726 0.427259 l -0.02278,-1.018603 c -0.0222,-0.992484 -0.02753,-1.023345 -0.207947,-1.203571 -0.261339,-0.26106 -0.714113,-0.304348 -1.10382,-0.105532 -0.244055,0.124507 -0.293772,0.13177 -0.293772,0.04292 0,-0.08274 -0.08759,-0.106947 -0.386898,-0.106947 h -0.386898 v 1.195864 1.195866 h 0.386898 0.386898 z m 10.059334,0.354401 v -0.482211 l 0.501507,-0.04205 c 0.367398,-0.0308 0.572376,-0.08894 0.766519,-0.217421 0.466108,-0.308454 0.619527,-1.029094 0.317288,-1.490369 -0.212145,-0.323776 -0.494099,-0.406257 -1.497383,-0.438036 l -0.932071,-0.02952 v 1.590911 1.59091 h 0.422071 0.422069 z m 3.024835,-1.170895 v -1.653106 h -0.422071 -0.422068 v 1.653106 1.653109 h 0.422068 0.422071 z m 6.260703,0.738624 V 48.71377 h 0.281382 0.281379 v -0.281382 -0.281379 h -0.314346 c -0.26978,0 -0.307903,-0.01746 -0.268922,-0.123103 0.07073,-0.191711 0.174617,-0.23359 0.464547,-0.187272 l 0.268176,0.04284 -0.02196,-0.305891 -0.02196,-0.30589 -0.422072,-0.01908 c -0.60267,-0.02725 -0.881927,0.127132 -1.020003,0.563888 -0.07285,0.230436 -0.143629,0.333883 -0.228621,0.334137 -0.09666,2.64e-4 -0.123103,0.06081 -0.123103,0.281749 0,0.234485 0.02344,0.281382 0.14069,0.281382 0.133477,0 0.140689,0.0469 0.140689,0.914485 v 0.914484 h 0.422072 0.422068 z m 4.658053,0.123103 0.0199,-0.791382 0.439658,-0.02096 0.439656,-0.02093 v -0.383543 -0.38354 l -0.228621,2.65e-4 c -0.125741,1.42e-4 -0.331502,0.06299 -0.457243,0.139657 -0.227967,0.138994 -0.228621,0.138994 -0.228621,-2.64e-4 0,-0.123794 -0.04794,-0.139655 -0.422071,-0.139655 h -0.422069 v 1.195863 1.195867 h 0.419767 0.419764 z m 2.095067,-0.04523 c 0,-0.90057 0.0092,-0.922009 0.39439,-0.922009 0.242324,0 0.30906,0.228824 0.30906,1.059754 v 0.69887 h 0.386897 0.386898 v -0.842801 c 0,-0.830786 0.0024,-0.843402 0.168709,-0.885142 0.09278,-0.02328 0.243147,-0.03181 0.33414,-0.01892 0.162136,0.02294 0.165822,0.04058 0.185181,0.885142 l 0.01976,0.861727 h 0.425093 0.42509 l -0.02278,-1.018603 c -0.02212,-0.988862 -0.02811,-1.023933 -0.205491,-1.201119 -0.27744,-0.277135 -0.676556,-0.3049 -1.086808,-0.0756 l -0.329245,0.184017 -0.208431,-0.175384 c -0.245962,-0.206963 -0.591883,-0.229759 -0.919064,-0.06057 -0.153522,0.07939 -0.230217,0.09024 -0.248579,0.03517 -0.01577,-0.04733 -0.195418,-0.07964 -0.442751,-0.07964 h -0.416211 v 1.195864 1.195866 h 0.422072 0.422068 z m -27.504893,-2.15305 v -0.316553 h -0.422068 -0.422072 v 0.316553 0.316553 h 0.422072 0.422068 z m -32.1131,-2.356326 c 0.26634,-0.101261 0.615521,-0.444953 0.747699,-0.735944 0.197781,-0.435414 0.178744,-1.183314 -0.04136,-1.625013 -0.380571,-0.763706 -1.424538,-1.03452 -2.288635,-0.59369 -0.5534977,0.282374 -0.8610097,1.068528 -0.7107105,1.816928 0.1295294,0.644969 0.5057515,1.056357 1.0986505,1.201335 0.289068,0.07068 0.931061,0.03649 1.194356,-0.06362 z m 4.731313,-0.04223 c 0.139478,-0.08983 0.158277,-0.08921 0.158277,0.0052 0,0.08405 0.09095,0.107138 0.422068,0.107138 h 0.422071 v -0.911175 c 0,-0.978628 -0.05324,-1.196038 -0.338661,-1.383056 -0.212029,-0.138925 -0.905534,-0.204383 -1.447702,-0.136644 l -0.394332,0.04927 v 0.320283 0.320283 l 0.228621,-0.04941 c 0.489794,-0.105855 0.728559,-0.117928 0.914484,-0.04624 0.30171,0.116324 0.229804,0.204206 -0.211034,0.257911 -0.820462,0.09996 -1.143106,0.353285 -1.143106,0.897522 0,0.607743 0.812451,0.940435 1.389314,0.568915 z m 3.517249,0.03415 c 0.135308,-0.05045 0.158277,-0.110307 0.158277,-0.412483 0,-0.194405 -0.03089,-0.353464 -0.06864,-0.353464 -0.03776,0 -0.172291,0.06319 -0.298966,0.140425 -0.290809,0.177307 -0.623906,0.179882 -0.838049,0.0065 -0.134321,-0.108768 -0.166068,-0.201488 -0.166068,-0.485029 0,-0.600607 0.372946,-0.838515 0.908235,-0.579387 0.428363,0.207367 0.463492,0.192294 0.463492,-0.198866 v -0.342583 l -0.318247,-0.0891 c -0.417303,-0.11684 -1.089488,-0.05404 -1.38585,0.129474 -0.363805,0.225274 -0.51009,0.534255 -0.510992,1.079294 -7.94e-4,0.500102 0.100713,0.717394 0.460917,0.986324 0.321781,0.240245 1.112496,0.299165 1.595895,0.11892 z m 4.083992,0.01355 c 0.170876,-0.04541 0.191553,-0.08613 0.21073,-0.414922 0.01169,-0.200515 0.01048,-0.36457 -0.0027,-0.36457 -0.01318,0 -0.148156,0.06331 -0.299932,0.14069 -0.400949,0.204414 -0.90665,0.19009 -1.128718,-0.03198 -0.09496,-0.09497 -0.172664,-0.205761 -0.172664,-0.246208 3e-6,-0.04708 0.303813,-0.07354 0.844143,-0.07354 h 0.844139 V 43.91735 c 0,-0.415779 -0.234153,-0.863084 -0.52374,-1.0005 -0.132934,-0.06308 -0.417139,-0.112057 -0.650263,-0.112057 -0.886823,0 -1.403676,0.528812 -1.334043,1.364909 0.05243,0.629497 0.379331,0.987367 1.00012,1.094864 0.345331,0.0598 0.851162,0.03379 1.212943,-0.06235 z m 4.498097,-0.05096 0.298968,-0.107061 v -0.416256 c 0,-0.228938 -0.02373,-0.415676 -0.05276,-0.414972 -0.02902,7.94e-4 -0.192056,0.09567 -0.36231,0.211034 -0.699741,0.474152 -1.413902,0.100428 -1.413902,-0.739902 0,-0.829294 0.669745,-1.207995 1.37173,-0.775628 0.41543,0.25587 0.457242,0.236413 0.457242,-0.212792 0,-0.379907 -0.0067,-0.393276 -0.246636,-0.493537 -0.599316,-0.25041 -1.386822,-0.19552 -1.870676,0.130389 -0.657101,0.442603 -0.82206,1.640242 -0.327089,2.37473 0.382895,0.568175 1.280137,0.753857 2.145433,0.44399 z m 4.108418,-0.007 c 0.305691,-0.179919 0.490291,-0.524552 0.528703,-0.987055 0.02721,-0.327625 0.003,-0.460967 -0.129934,-0.715147 -0.260839,-0.498801 -0.457755,-0.602052 -1.148212,-0.602052 -0.483777,0 -0.621946,0.02564 -0.781878,0.145037 -0.345461,0.257924 -0.473311,0.494993 -0.505278,0.936911 -0.0513,0.709173 0.170662,1.106709 0.735312,1.316971 0.338241,0.125952 1.009406,0.07713 1.301287,-0.09467 z m 2.396064,0.0093 c 0.172945,-0.08943 0.195879,-0.08873 0.195879,0.006 0,0.08319 0.08699,0.107326 0.386897,0.107326 h 0.386898 V 44.07102 42.875157 h -0.386898 -0.386897 v 0.806492 c 0,0.879766 -0.03421,0.952132 -0.450141,0.952132 -0.263845,0 -0.323654,-0.187637 -0.323654,-1.015378 v -0.74327 H 34.391955 33.96314 l 0.02471,0.967242 c 0.02043,0.799402 0.04743,1.000832 0.155593,1.160796 0.223123,0.329994 0.779053,0.396576 1.255229,0.150336 z m 2.992093,-0.0016 c 0.138298,-0.08672 0.158277,-0.08572 0.158277,0.0079 0,0.08297 0.08728,0.107138 0.386897,0.107138 h 0.386898 v -1.653106 -1.653109 h -0.386898 -0.386897 v 0.49489 c 0,0.467484 -0.0075,0.490858 -0.136068,0.422071 -0.194254,-0.103965 -0.682159,-0.08994 -0.905015,0.02601 -0.414417,0.215619 -0.64992,0.652711 -0.644109,1.195459 0.0037,0.342185 0.14578,0.771456 0.31864,0.962467 0.245361,0.271118 0.848048,0.31615 1.208275,0.09028 z m 13.506238,0 c 0.138298,-0.08672 0.158277,-0.08572 0.158277,0.0079 0,0.08427 0.09179,0.107138 0.430054,0.107138 H 52.9154 l -0.02866,-0.967243 c -0.0323,-1.090146 -0.07912,-1.220819 -0.49734,-1.388157 -0.270266,-0.108141 -1.082492,-0.132731 -1.494795,-0.04525 -0.190868,0.04049 -0.213148,0.07426 -0.233151,0.35334 l -0.02212,0.308568 0.268325,-0.04888 c 0.614894,-0.112001 0.770241,-0.119991 0.954185,-0.04907 0.301982,0.116429 0.229645,0.20435 -0.211034,0.2565 -0.497441,0.05887 -0.964936,0.253198 -1.066745,0.443431 -0.125957,0.235355 -0.0915,0.676471 0.06876,0.880203 0.24932,0.31696 0.854607,0.38581 1.244198,0.141522 z m 3.266911,-0.04273 c 0.310984,-0.173514 0.442296,-0.449609 0.377675,-0.794078 -0.05815,-0.309952 -0.309013,-0.477105 -0.886574,-0.590733 -0.431469,-0.08489 -0.576162,-0.188235 -0.410467,-0.293185 0.149413,-0.09463 0.531641,-0.07486 0.811244,0.04196 0.359103,0.150045 0.376047,0.140684 0.376047,-0.207727 0,-0.302054 -0.0094,-0.315865 -0.263794,-0.386506 -0.451332,-0.125342 -1.010002,-0.09066 -1.356821,0.08423 -0.805534,0.406207 -0.549899,1.290437 0.411292,1.422636 0.438082,0.06025 0.572733,0.138991 0.449104,0.26262 -0.132252,0.132252 -0.654944,0.09032 -0.987242,-0.07921 -0.157816,-0.08051 -0.304028,-0.146383 -0.324914,-0.146383 -0.02088,0 -0.03798,0.155821 -0.03798,0.346268 0,0.329022 0.01138,0.34985 0.228622,0.41815 0.569695,0.179115 1.208256,0.148233 1.613804,-0.07804 z m 6.227189,0.04704 c 0.196561,-0.126559 0.231095,-0.125781 0.231095,0.0052 0,0.081 0.08989,0.105518 0.386897,0.105518 h 0.386898 V 44.071097 42.875233 H 62.00911 61.622213 v 0.806493 c 0,0.72536 -0.01368,0.813816 -0.136065,0.879311 -0.182565,0.0977 -0.449612,0.09211 -0.553315,-0.01159 -0.0557,-0.0557 -0.08441,-0.354851 -0.08441,-0.879311 v -0.794898 h -0.422069 -0.422071 l 1.43e-4,0.896897 c 1.4e-4,1.061165 0.09156,1.335191 0.492304,1.475542 0.277837,0.0973 0.66234,0.058 0.894424,-0.09143 z m 3.554896,0.02755 c 0.174408,-0.06725 0.19345,-0.108368 0.19345,-0.41778 0,-0.188754 -0.03089,-0.343188 -0.06865,-0.343188 -0.03775,0 -0.172288,0.06319 -0.298966,0.140425 -0.523973,0.319468 -1.041296,0.06679 -1.037053,-0.50654 0.0026,-0.357362 0.109887,-0.521208 0.409504,-0.625655 0.183118,-0.06384 0.27082,-0.05202 0.524227,0.07065 0.432316,0.209283 0.470934,0.195112 0.470934,-0.172823 0,-0.303408 -0.01378,-0.325898 -0.263593,-0.430278 -0.34394,-0.143706 -1.11287,-0.09532 -1.429229,0.08993 -0.371761,0.217696 -0.513099,0.468315 -0.544791,0.966012 -0.04835,0.759293 0.28053,1.190043 1.006576,1.318363 0.321866,0.05689 0.755515,0.01963 1.037587,-0.08912 z m 3.904147,-0.02917 c 0.139478,-0.08983 0.158276,-0.08921 0.158276,0.0052 0,0.08405 0.09095,0.10714 0.422072,0.10714 h 0.422068 v -1.195866 -1.195864 h -0.422068 -0.422072 v 0.842799 c 0,0.832977 -0.0019,0.843298 -0.170299,0.885542 -0.471029,0.118221 -0.601043,-0.106749 -0.602459,-1.042477 l -0.0011,-0.685864 h -0.386898 -0.386897 v 0.975342 c 0,0.878744 0.01437,0.993616 0.145116,1.159827 0.252762,0.321334 0.859914,0.391711 1.244198,0.144217 z m 5.838634,0.03167 c 0.217361,-0.06744 0.228622,-0.08799 0.228622,-0.4172 0,-0.19045 -0.02167,-0.346271 -0.04814,-0.346271 -0.02647,0 -0.186822,0.06714 -0.356333,0.149196 -0.404154,0.195646 -0.965486,0.157983 -1.156232,-0.07758 -0.07017,-0.08665 -0.127579,-0.185697 -0.127579,-0.220099 0,-0.0344 0.379862,-0.06255 0.84414,-0.06255 h 0.84414 v -0.33414 c 0,-0.704779 -0.392785,-1.072449 -1.145252,-1.072653 -0.720818,-2.09e-4 -1.172419,0.312907 -1.316281,0.912583 -0.08715,0.363291 -0.01871,0.805709 0.168942,1.092102 0.297241,0.453657 1.253442,0.628126 2.064083,0.376613 z M 14.280034,44.467025 v -0.799976 l 0.282618,-0.04519 c 0.15544,-0.02484 0.361198,-0.02548 0.457242,-0.0013 0.170741,0.04285 0.174625,0.03485 0.174625,-0.359844 v -0.403672 l -0.319408,0.036 c -0.175672,0.01979 -0.381434,0.09213 -0.457242,0.160742 -0.132831,0.120211 -0.137835,0.119237 -0.137835,-0.02685 0,-0.138385 -0.03678,-0.151593 -0.422071,-0.151593 h -0.422069 v 1.195864 1.195866 h 0.422069 0.422071 z m 7.45657,-0.853131 v -1.653106 h -0.422072 -0.422068 v 1.653106 1.653109 h 0.422068 0.422072 z m 8.722778,0 v -1.653106 h -0.386898 -0.386897 v 1.653106 1.653109 h 0.386897 0.386898 z m 12.732443,1.336556 c 0,-0.314878 -0.0013,-0.316553 -0.246206,-0.316553 h -0.246208 v -0.949658 -0.949656 h 0.246208 c 0.244904,0 0.246206,-0.0016 0.246206,-0.316552 V 42.101478 H 42.27734 41.362855 v 0.316553 c 0,0.314878 0.0013,0.316552 0.246208,0.316552 h 0.246208 v 0.949656 0.949658 h -0.246208 c -0.244903,0 -0.246208,0.0016 -0.246208,0.316553 v 0.316553 h 0.914485 0.914485 z m 1.336556,-0.522134 v -0.838684 l 0.242763,-0.08012 c 0.177067,-0.05844 0.281768,-0.05925 0.386897,-0.003 0.132953,0.07116 0.144135,0.14243 0.144135,0.918805 v 0.841666 h 0.42726 0.427259 l -0.02278,-1.025948 -0.02278,-1.025949 -0.22973,-0.205089 c -0.285654,-0.255013 -0.767262,-0.282929 -1.12441,-0.06517 -0.186545,0.113739 -0.228621,0.120163 -0.228621,0.03491 0,-0.07975 -0.09159,-0.104484 -0.386898,-0.104484 h -0.386897 v 1.195864 1.195866 h 0.386897 0.386898 z m 3.09518,-0.0758 v -0.914485 h 0.281379 0.281379 V 43.156652 42.875273 H 47.90494 c -0.192103,0 -0.281379,-0.03075 -0.281379,-0.09691 0,-0.176816 0.196167,-0.273267 0.45647,-0.224433 l 0.246978,0.04633 V 42.280519 41.96078 h -0.460735 c -0.703022,0 -1.016508,0.215514 -1.016508,0.698826 0,0.183139 -0.02652,0.215659 -0.175863,0.215659 -0.158277,0 -0.175863,0.02814 -0.175863,0.281379 0,0.253243 0.01759,0.281379 0.175863,0.281379 h 0.175863 v 0.914485 0.914487 h 0.386898 0.386897 z m 1.758625,0.11431 v -0.800174 l 0.223795,-0.04476 c 0.123087,-0.02463 0.328848,-0.02506 0.457242,-0.0011 l 0.233447,0.0438 v -0.394727 -0.394727 h -0.267935 c -0.147365,0 -0.329383,0.04648 -0.404485,0.10328 -0.175728,0.132914 -0.242064,0.133528 -0.242064,0.0021 0,-0.08207 -0.0938,-0.105516 -0.422072,-0.105516 h -0.422068 v 1.195864 1.195866 h 0.422068 0.422072 z m 8.160017,0.480436 v -0.319741 l -0.246978,0.04633 c -0.384892,0.07221 -0.45647,-0.03468 -0.45647,-0.681675 v -0.554149 h 0.351724 0.351724 V 43.156652 42.875273 H 57.190479 56.838755 V 42.523546 42.171823 H 56.451858 56.06496 v 0.351723 c 0,0.328277 -0.01172,0.351727 -0.175863,0.351727 -0.158277,0 -0.175864,0.02814 -0.175864,0.281379 0,0.253243 0.0176,0.281379 0.175864,0.281379 h 0.175863 v 0.725178 c 0,0.980485 0.103203,1.098029 0.967243,1.101654 l 0.51,0.0021 z m 1.195866,-0.480237 v -0.799976 l 0.282618,-0.04519 c 0.15544,-0.02484 0.361201,-0.02548 0.457242,-0.0013 0.170741,0.04285 0.174625,0.03485 0.174625,-0.359844 v -0.403672 l -0.319408,0.036 c -0.175673,0.01979 -0.381431,0.09213 -0.457242,0.160742 -0.132832,0.120211 -0.137835,0.119237 -0.137835,-0.02685 0,-0.138385 -0.03678,-0.151593 -0.422071,-0.151593 h -0.422069 v 1.195864 1.195866 h 0.422069 0.422071 z m 8.357584,0.464349 0.0217,-0.300456 -0.292666,0.0468 c -0.377703,0.0604 -0.416576,-0.0042 -0.417941,-0.694513 l -0.0011,-0.545174 h 0.351724 0.351727 V 43.156652 42.875273 H 66.75737 66.405646 v -0.351727 -0.351723 h -0.422068 -0.422071 v 0.351723 c 0,0.30483 -0.01876,0.351727 -0.14069,0.351727 -0.117242,0 -0.140689,0.0469 -0.140689,0.281379 0,0.234484 0.02344,0.281379 0.140689,0.281379 0.129696,0 0.14069,0.0469 0.14069,0.600194 0,0.640144 0.108317,1.020638 0.327546,1.150607 0.07133,0.04229 0.367112,0.06927 0.657283,0.05994 l 0.527587,-0.01696 z m 4.163825,-0.434015 c 0,-0.539326 0.02633,-0.786193 0.08793,-0.824941 0.04836,-0.03042 0.269949,-0.05314 0.492413,-0.0505 l 0.404484,0.0048 V 43.25101 42.875284 l -0.263795,2.64e-4 c -0.145084,1.4e-4 -0.366672,0.06299 -0.492413,0.139655 -0.227968,0.138996 -0.228621,0.138996 -0.228621,-2.64e-4 0,-0.122383 -0.04785,-0.139655 -0.386898,-0.139655 h -0.386897 v 1.195863 1.195867 h 0.386897 0.386898 z M 64.931049,39.40853 c 1.081667,-0.519996 1.673387,-1.525971 1.598531,-2.717638 -0.03982,-0.63399 -0.262498,-1.18408 -0.655315,-1.61888 l -0.265544,-0.293926 2.161503,-8.022894 c 1.188826,-4.412594 2.148626,-8.035771 2.132891,-8.051509 -0.0369,-0.0369 -0.374195,1.189546 -2.56065,9.310889 -1.539452,5.718127 -1.791722,6.723285 -1.721358,6.858637 0.04534,0.08723 0.192667,0.295236 0.327382,0.462235 0.347832,0.431197 0.479478,0.942772 0.44492,1.728944 -0.0217,0.493263 -0.06729,0.721392 -0.198387,0.992251 -0.238887,0.493583 -0.758425,0.986602 -1.320003,1.252625 -0.429948,0.203671 -0.536512,0.224594 -1.142455,0.224327 -0.596091,-2.65e-4 -0.71387,-0.0226 -1.090348,-0.206714 -0.512765,-0.250775 -1.07206,-0.795229 -1.304864,-1.270238 -0.145537,-0.29695 -0.176424,-0.477703 -0.198343,-1.16069 -0.02757,-0.859226 -0.136027,-0.904243 -0.144957,-0.06017 -0.01275,1.205153 0.706372,2.249159 1.837947,2.668297 0.558413,0.206838 1.565396,0.161001 2.09905,-0.09555 z M 34.96146,39.118436 c 0.769652,-0.180772 1.29957,-0.369507 1.934467,-0.688981 3.192142,-1.606248 5.477549,-5.254508 6.204587,-9.90456 0.196268,-1.2553 0.176104,-4.279276 -0.03682,-5.522084 -0.307102,-1.792505 -0.768175,-3.241866 -1.494586,-4.698162 -0.701297,-1.40595 -1.416534,-2.387226 -2.483503,-3.407256 -1.371651,-1.311307 -2.820948,-2.047396 -4.546211,-2.308998 -0.982472,-0.148971 -12.594114,-0.148971 -13.576583,0 -1.831422,0.277696 -3.439644,1.144535 -4.861478,2.620352 -2.489883,2.584418 -3.861303,6.377 -3.861303,10.67821 0,4.444505 1.532509,8.482121 4.169423,10.984947 1.377167,1.307137 3.124494,2.156489 4.816462,2.341213 0.300225,0.03278 3.394834,0.05277 6.876912,0.04442 5.765766,-0.01384 6.378157,-0.02625 6.858635,-0.139096 z m 29.745408,-0.282668 c 0.779896,-0.395203 1.235006,-1.149323 1.187847,-1.968264 l -0.02469,-0.428797 -0.02416,0.492413 -0.02418,0.492416 -0.05285,-0.527587 c -0.02907,-0.290174 -0.07212,-0.606727 -0.09567,-0.70345 -0.03602,-0.147934 -0.02646,-0.142349 0.06029,0.03517 0.05671,0.11607 0.104539,0.170206 0.106283,0.1203 0.0061,-0.174564 -0.293979,-0.670776 -0.609907,-1.00853 l -0.318649,-0.340659 0.08383,-0.335212 c 0.485243,-1.940276 4.423299,-16.4252 4.632105,-17.03778 0.140642,-0.412596 0.155631,-0.426074 0.682696,-0.613825 0.387194,-0.137925 1.211504,-0.86936 1.129419,-1.002173 -0.02606,-0.04216 -0.01865,-0.07665 0.01643,-0.07665 0.03509,0 0.121071,-0.126981 0.191056,-0.28218 0.112889,-0.250349 0.117316,-0.327713 0.03918,-0.685864 -0.213707,-0.979683 -0.510191,-1.454377 -1.123564,-1.798955 -0.314513,-0.176689 -0.491553,-0.222073 -1.02,-0.261482 -0.548275,-0.04089 -0.677037,-0.02878 -0.903224,0.08493 -0.145087,0.07294 -0.263795,0.165494 -0.263795,0.205681 0,0.04019 -0.02869,0.05533 -0.06375,0.03366 -0.03507,-0.02167 -0.209365,0.12255 -0.387329,0.32049 -0.239162,0.266004 -0.361955,0.486251 -0.470694,0.844249 l -0.147119,0.484354 -0.36245,0.102663 c -0.298275,0.08449 -9.958691,2.656533 -15.841096,4.217628 -0.813993,0.216022 -1.522698,0.392766 -1.574895,0.392766 -0.0522,0 -0.235331,-0.129442 -0.406966,-0.28765 -0.386617,-0.35637 -0.783574,-0.536387 -1.286434,-0.583387 -0.320378,-0.02995 -0.344566,-0.02529 -0.140689,0.0271 0.200197,0.05144 0.168264,0.05694 -0.170868,0.02943 -0.34648,-0.0281 -0.478263,-0.0039 -0.778558,0.143026 -0.450175,0.22025 -0.8377,0.600493 -1.07864,1.058371 -0.154609,0.293814 -0.185306,0.444381 -0.186444,0.914484 -7.93e-4,0.309518 0.02716,0.626071 0.06203,0.703451 0.03486,0.07738 0.07146,0.179117 0.08133,0.226083 0.07031,0.334492 0.753686,0.948987 1.227825,1.10407 0.349726,0.11439 1.269939,0.15427 1.365049,0.05916 0.02902,-0.02902 0.07386,-0.05432 0.09966,-0.05622 0.0258,-0.0019 0.114776,-0.02671 0.197742,-0.05514 0.130249,-0.04463 0.55767,0.358399 3.130351,2.951673 5.272413,5.314611 9.144447,9.129871 9.897978,9.752848 l 0.235693,0.194858 -0.120015,0.297556 c -0.180964,0.448667 -0.169203,1.352124 0.02275,1.747578 0.239881,0.494191 0.54615,0.810284 1.016203,1.048797 0.417383,0.211786 0.468106,0.220798 1.046509,0.18591 0.462283,-0.02788 0.693246,-0.07993 0.964372,-0.217321 z m -6.074682,-5.391303 c -1.392629,-1.395349 -4.114816,-4.091956 -6.049304,-5.992458 -2.708516,-2.660931 -2.14244,-2.07759 2.461919,2.536999 3.288543,3.295851 6.01073,5.992456 6.049303,5.992456 0.03857,0 -1.069289,-1.141648 -2.461918,-2.536997 z M 48.322249,23.534829 c 0.06342,-0.04013 -0.05387,-0.04999 -0.316553,-0.02659 -1.154255,0.102809 -2.183042,-0.427921 -2.708648,-1.397336 -0.235265,-0.433922 -0.241035,-0.464159 -0.239218,-1.253614 0.0021,-0.965272 0.11216,-1.271519 0.667089,-1.858275 0.926812,-0.979966 2.556896,-1.097391 3.613253,-0.260281 l 0.342887,0.271719 0.888151,-0.236821 c 0.488484,-0.130254 4.366045,-1.161724 8.616801,-2.292157 7.35303,-1.955442 7.732149,-2.064011 7.800658,-2.233906 0.381389,-0.945795 0.817009,-1.467773 1.508196,-1.80717 0.365964,-0.179702 0.480616,-0.200369 1.111504,-0.200369 0.617011,0 0.753179,0.02331 1.108118,0.18964 0.530225,0.248484 1.102973,0.797854 1.359389,1.303896 0.188426,0.371874 0.205605,0.467492 0.205605,1.1444 0,0.667051 -0.01916,0.777594 -0.197509,1.140825 -0.263744,0.537088 -0.705067,0.976423 -1.29033,1.28452 -0.311185,0.163814 -0.40708,0.238442 -0.270788,0.210719 0.11607,-0.0236 0.350806,-0.124298 0.521636,-0.223758 0.984825,-0.57337 1.556531,-1.773256 1.356744,-2.84752 -0.336235,-1.808011 -2.180995,-2.821209 -3.863536,-2.121963 -0.693459,0.288195 -1.368491,1.038262 -1.564528,1.738439 -0.05025,0.179478 -0.125484,0.326324 -0.167185,0.326324 -0.0417,0 -3.879583,1.012968 -8.528624,2.251038 -4.649042,1.238073 -8.498888,2.251041 -8.55521,2.251041 -0.05632,0 -0.172484,-0.07459 -0.258133,-0.165764 -0.232293,-0.247264 -0.8412,-0.530831 -1.338413,-0.623298 -1.174128,-0.218353 -2.429256,0.434623 -2.97801,1.5493 -0.213746,0.434181 -0.230317,0.518559 -0.230317,1.17277 0,0.618112 0.02328,0.754619 0.189087,1.10839 0.511281,1.090925 1.385748,1.661599 2.554367,1.666973 0.309518,0.0013 0.608103,-0.02611 0.663517,-0.06117 z m 21.731475,-5.280305 c 0,-0.06651 -0.02236,-0.05351 -0.06046,0.03517 -0.03325,0.07738 -0.06046,0.188171 -0.06046,0.246208 0,0.06651 0.02236,0.05351 0.06046,-0.03517 0.03325,-0.07738 0.06046,-0.188172 0.06046,-0.246208 z m 1.597385,-4.136109 c -0.0778,-0.234228 -0.225441,-0.445048 -0.480547,-0.686176 -0.360349,-0.340614 -0.361918,-0.341289 -0.07306,-0.03152 0.298723,0.320352 0.575059,0.832723 0.588058,1.090348 0.0039,0.07738 0.02302,0.101264 0.04247,0.05307 0.01945,-0.04819 -0.01516,-0.239766 -0.07692,-0.425725 z m -0.884047,-1.037686 c 0,-0.02125 -0.134535,-0.09968 -0.298966,-0.174318 -0.219258,-0.09952 -0.439632,-0.133146 -0.826553,-0.126105 l -0.527587,0.0096 0.597932,0.04478 c 0.347884,0.02606 0.686186,0.09376 0.808966,0.161902 0.242438,0.134556 0.246208,0.135842 0.246208,0.08415 z"
       id="path1833"
       inkscape:export-filename="path1833.png"
       inkscape:export-xdpi="96"
       inkscape:export-ydpi="96" /></g></svg>
