<?xml version="1.0" encoding="UTF-8" standalone="no"?>
<!-- Created with Inkscape (http://www.inkscape.org/) -->

<svg
   width="320"
   height="240"
   viewBox="0 0 84.666665 63.5"
   version="1.1"
   id="svg466"
   xml:space="preserve"
   inkscape:version="1.2.1 (9c6d41e, 2022-07-14)"
   sodipodi:docname="oci-iot-platform.svg"
   xmlns:inkscape="http://www.inkscape.org/namespaces/inkscape"
   xmlns:sodipodi="http://sodipodi.sourceforge.net/DTD/sodipodi-0.dtd"
   xmlns="http://www.w3.org/2000/svg"
   xmlns:svg="http://www.w3.org/2000/svg"><sodipodi:namedview
     id="namedview468"
     pagecolor="#ffffff"
     bordercolor="#000000"
     borderopacity="0.25"
     inkscape:showpageshadow="2"
     inkscape:pageopacity="0.0"
     inkscape:pagecheckerboard="0"
     inkscape:deskcolor="#d1d1d1"
     inkscape:document-units="mm"
     showgrid="false"
     inkscape:zoom="3.628125"
     inkscape:cx="159.86219"
     inkscape:cy="120.31008"
     inkscape:window-width="1763"
     inkscape:window-height="1205"
     inkscape:window-x="2582"
     inkscape:window-y="108"
     inkscape:window-maximized="0"
     inkscape:current-layer="g562" /><defs
     id="defs463"><rect
       x="46.999364"
       y="27.325211"
       width="249.20593"
       height="19.674152"
       id="rect648" /><clipPath
       id="clip0"><rect
         x="1870"
         y="499"
         width="142"
         height="142"
         id="rect548" /></clipPath><clipPath
       id="clip1"><rect
         x="1870"
         y="499"
         width="142"
         height="142"
         id="rect551" /></clipPath></defs><g
     inkscape:label="Layer 1"
     inkscape:groupmode="layer"
     id="layer1"><rect
       style="fill:#edeae7;fill-opacity:1;stroke-width:0.264583"
       id="rect304"
       width="84.666664"
       height="10.583333"
       x="0"
       y="0"
       inkscape:export-filename="oci_iot_platform.png"
       inkscape:export-xdpi="96"
       inkscape:export-ydpi="96" /><g
       style="overflow:hidden"
       id="g592"
       transform="matrix(0.05861297,0,0,0.05861297,1.2767848,1.3898079)"><g
         clip-path="url(#clipPath582)"
         id="g562"
         transform="translate(-1870,-499)"><path
           d="m 1964.86,640 c -3.28,-0.005 -6.43,-1.306 -8.75,-3.616 -1.14,-1.141 -2.04,-2.495 -2.66,-3.986 -0.61,-1.492 -0.92,-3.087 -0.9,-4.699 0,-1.642 0.33,-3.268 0.99,-4.774 l -65.33,-65.146 c -1.53,0.67 -3.19,1.01 -4.86,0.995 -1.62,0.01 -3.23,-0.305 -4.73,-0.926 -1.5,-0.621 -2.85,-1.534 -3.99,-2.688 -1.15,-1.132 -2.06,-2.48 -2.68,-3.965 -0.63,-1.485 -0.95,-3.078 -0.95,-4.688 0,-3.27 1.31,-6.405 3.63,-8.719 2.32,-2.294 5.46,-3.581 8.73,-3.581 3.28,0 6.42,1.287 8.74,3.581 0.32,0.338 0.62,0.693 0.9,1.061 l 89.3,-23.771 c 0.24,-2.309 1.12,-4.504 2.56,-6.333 1.43,-1.83 3.35,-3.219 5.55,-4.009 2.19,-0.79 4.56,-0.948 6.83,-0.456 2.28,0.492 4.37,1.614 6.04,3.237 1.66,1.623 2.83,3.682 3.38,5.938 0.54,2.257 0.44,4.621 -0.31,6.82 -0.74,2.199 -2.1,4.144 -3.9,5.612 -1.81,1.467 -3.99,2.398 -6.3,2.684 l -24.07,89.182 c 0.56,0.367 1.07,0.789 1.53,1.26 1.71,1.728 2.87,3.92 3.34,6.302 0.46,2.379 0.21,4.844 -0.73,7.083 -0.93,2.24 -2.5,4.156 -4.53,5.508 -2.02,1.352 -4.39,2.08 -6.83,2.094 z"
           fill="#ffffff"
           fill-rule="evenodd"
           fill-opacity="1"
           id="path556"
           style="fill:#edeae7;fill-opacity:1" /><path
           d="m 1994.99,505.312 c 1.4,-0.01 2.79,0.261 4.09,0.796 1.29,0.534 2.47,1.322 3.45,2.317 1,0.982 1.79,2.153 2.34,3.443 0.54,1.291 0.82,2.675 0.82,4.074 0,1.399 -0.28,2.783 -0.82,4.074 -0.55,1.29 -1.34,2.461 -2.34,3.443 -1.92,1.945 -4.53,3.062 -7.27,3.113 l -24.62,91.334 c 0.83,0.433 1.58,0.991 2.23,1.656 1.42,1.393 2.42,3.153 2.89,5.085 0.47,1.93 0.4,3.955 -0.23,5.843 -0.62,1.888 -1.76,3.565 -3.28,4.844 -1.53,1.279 -3.38,2.106 -5.36,2.389 -1.97,0.282 -3.98,0.011 -5.81,-0.786 -1.83,-0.797 -3.39,-2.087 -4.52,-3.723 -1.13,-1.638 -1.78,-3.556 -1.88,-5.541 -0.09,-1.986 0.37,-3.957 1.34,-5.692 l -66.87,-66.697 c -1.58,0.909 -3.36,1.389 -5.18,1.391 -1.41,0.006 -2.79,-0.267 -4.09,-0.801 -1.29,-0.535 -2.47,-1.321 -3.46,-2.312 -1.99,-1.998 -3.11,-4.701 -3.11,-7.517 0,-2.818 1.12,-5.52 3.11,-7.518 1,-0.987 2.17,-1.77 3.47,-2.305 1.29,-0.534 2.68,-0.809 4.08,-0.809 1.4,0 2.78,0.275 4.08,0.809 1.29,0.535 2.47,1.318 3.46,2.305 0.55,0.523 1.03,1.113 1.43,1.755 l 91.39,-24.34 c 0,-2.819 1.13,-5.521 3.12,-7.517 0.99,-0.992 2.16,-1.778 3.46,-2.312 1.29,-0.535 2.68,-0.807 4.08,-0.801 z m 0,-3.312 c -3.25,-0.015 -6.41,1.111 -8.92,3.181 -2.51,2.07 -4.21,4.953 -4.8,8.145 l -87.07,23.181 -0.33,-0.331 c -1.63,-1.617 -3.63,-2.809 -5.83,-3.473 -2.19,-0.664 -4.52,-0.779 -6.77,-0.334 -2.25,0.445 -4.36,1.435 -6.14,2.884 -1.78,1.449 -3.17,3.311 -4.05,5.423 -0.89,2.112 -1.23,4.409 -1.02,6.687 0.22,2.278 1,4.468 2.26,6.376 1.27,1.909 2.99,3.477 5.01,4.566 2.02,1.09 4.27,1.667 6.57,1.682 1.51,0.011 3.02,-0.235 4.45,-0.729 l 63.72,63.517 c -0.49,1.404 -0.73,2.882 -0.73,4.369 0.01,2.289 0.59,4.539 1.69,6.552 1.09,2.014 2.66,3.726 4.58,4.988 1.91,1.265 4.11,2.039 6.39,2.254 2.29,0.216 4.59,-0.132 6.71,-1.012 2.12,-0.881 3.99,-2.268 5.44,-4.041 1.45,-1.772 2.45,-3.871 2.9,-6.115 0.44,-2.245 0.33,-4.567 -0.34,-6.756 -0.67,-2.189 -1.86,-4.184 -3.48,-5.803 -0.27,-0.232 -0.5,-0.497 -0.77,-0.696 l 23.42,-86.929 c 2.66,-0.54 5.1,-1.854 7.01,-3.775 1.97,-1.954 3.3,-4.446 3.84,-7.16 0.54,-2.713 0.26,-5.525 -0.81,-8.078 -1.07,-2.553 -2.87,-4.731 -5.19,-6.257 -2.31,-1.527 -5.03,-2.333 -7.8,-2.316 z"
           fill="#ffffff"
           fill-rule="evenodd"
           fill-opacity="1"
           id="path558"
           style="fill:#edeae7;fill-opacity:1" /><path
           d="m 2001.82,509.103 c -1.49,-1.482 -3.38,-2.491 -5.44,-2.899 -2.07,-0.409 -4.2,-0.199 -6.14,0.602 -1.95,0.803 -3.61,2.16 -4.78,3.903 -1.16,1.742 -1.79,3.79 -1.79,5.885 -0.01,1.754 0.41,3.484 1.23,5.036 0.82,1.551 2.02,2.876 3.48,3.856 1.46,0.979 3.14,1.584 4.89,1.759 1.75,0.175 3.52,-0.085 5.15,-0.756 1.62,-0.671 3.06,-1.733 4.17,-3.091 1.12,-1.358 1.88,-2.97 2.21,-4.692 0.34,-1.721 0.24,-3.499 -0.28,-5.175 -0.52,-1.675 -1.45,-3.197 -2.7,-4.428 z m -4.07,10.923 c -0.88,0.89 -2.07,1.4 -3.31,1.419 -1.25,-0.03 -2.44,-0.538 -3.32,-1.419 -0.88,-0.88 -1.38,-2.06 -1.42,-3.3 0.04,-1.239 0.55,-2.416 1.42,-3.3 0.89,-0.869 2.07,-1.375 3.32,-1.419 1.22,0.032 2.39,0.521 3.26,1.371 0.88,0.85 1.41,1.999 1.47,3.216 -0.02,1.244 -0.53,2.428 -1.42,3.3 z m -106.61,18.975 c -0.99,-0.984 -2.16,-1.764 -3.45,-2.297 -1.29,-0.532 -2.68,-0.806 -4.07,-0.806 -1.4,0 -2.78,0.274 -4.07,0.806 -1.29,0.533 -2.46,1.313 -3.45,2.297 -1.98,1.991 -3.1,4.684 -3.1,7.491 0,2.807 1.12,5.5 3.1,7.491 2,1.987 4.7,3.103 7.52,3.103 2.82,0 5.52,-1.116 7.52,-3.103 1.99,-1.987 3.11,-4.681 3.11,-7.491 0,-2.81 -1.12,-5.504 -3.11,-7.491 z m -4.08,11.022 c -0.45,0.451 -0.99,0.809 -1.58,1.053 -0.59,0.244 -1.22,0.37 -1.86,0.37 -0.64,0 -1.27,-0.126 -1.86,-0.37 -0.6,-0.244 -1.13,-0.602 -1.59,-1.053 -0.9,-0.914 -1.41,-2.147 -1.41,-3.432 0,-1.285 0.51,-2.518 1.41,-3.432 0.46,-0.451 0.99,-0.808 1.59,-1.053 0.59,-0.244 1.22,-0.37 1.86,-0.37 0.64,0 1.27,0.126 1.86,0.37 0.59,0.245 1.13,0.602 1.58,1.053 0.91,0.914 1.42,2.147 1.42,3.432 0,1.285 -0.51,2.518 -1.42,3.432 z m 70.15,69.894 c -1.49,1.482 -2.5,3.368 -2.91,5.423 -0.41,2.055 -0.2,4.185 0.61,6.12 0.8,1.937 2.16,3.59 3.91,4.753 1.75,1.166 3.8,1.787 5.91,1.787 2.1,0 4.16,-0.621 5.9,-1.787 1.75,-1.163 3.12,-2.816 3.92,-4.753 0.8,-1.935 1.02,-4.065 0.6,-6.12 -0.4,-2.055 -1.42,-3.941 -2.9,-5.423 -0.99,-0.988 -2.16,-1.773 -3.45,-2.307 -1.29,-0.535 -2.68,-0.81 -4.07,-0.81 -1.4,0 -2.78,0.275 -4.08,0.81 -1.28,0.534 -2.45,1.319 -3.44,2.307 z m 10.96,10.922 c -0.92,0.903 -2.15,1.411 -3.44,1.411 -1.29,0 -2.53,-0.508 -3.45,-1.411 -0.45,-0.45 -0.81,-0.986 -1.05,-1.574 -0.25,-0.589 -0.37,-1.219 -0.37,-1.856 0,-0.638 0.12,-1.27 0.37,-1.859 0.24,-0.589 0.6,-1.124 1.05,-1.574 0.92,-0.91 2.16,-1.422 3.45,-1.422 1.29,0 2.53,0.512 3.44,1.422 0.91,0.909 1.43,2.144 1.43,3.433 0,1.285 -0.52,2.52 -1.43,3.43 z m 19.54,-100.847 c 1.76,0.846 3.65,1.35 5.6,1.485 l -22.19,82.5 c -1.76,-0.829 -3.66,-1.311 -5.6,-1.419 z m -33.58,86.856 c -0.68,0.686 -1.29,1.437 -1.82,2.243 l -60.34,-60.125 c 0.8,-0.529 1.56,-1.137 2.25,-1.815 0.72,-0.688 1.37,-1.439 1.95,-2.244 l 60.21,59.994 c -0.81,0.529 -1.56,1.137 -2.25,1.815 z m -55.61,-71.676 c -0.19,-1.937 -0.75,-3.819 -1.65,-5.544 l 82.53,-22.011 c 0.13,1.927 0.64,3.81 1.49,5.544 z m 85.22,-18.018 c -0.69,-0.686 -1.31,-1.437 -1.86,-2.244 l -27.25,27.291 c -1.6,-0.878 -3.38,-1.343 -5.2,-1.353 -1.4,-0.002 -2.78,0.271 -4.07,0.804 -1.29,0.532 -2.47,1.313 -3.45,2.298 -0.74,0.737 -1.37,1.583 -1.86,2.508 l -41.46,-9.768 c -0.04,1.893 -0.43,3.762 -1.16,5.511 l 41.4,9.9 c 0.15,2.609 1.28,5.068 3.15,6.898 1.87,1.83 4.36,2.9 6.98,3.002 l 9.64,41.91 c 1.78,-0.781 3.69,-1.218 5.63,-1.287 l -9.64,-41.91 c 0.86,-0.489 1.65,-1.088 2.35,-1.782 0.99,-0.982 1.78,-2.149 2.31,-3.435 0.54,-1.286 0.81,-2.664 0.81,-4.056 0.01,-1.816 -0.46,-3.602 -1.36,-5.181 l 27.26,-27.159 c -0.79,-0.538 -1.54,-1.146 -2.22,-1.815 z m -39.18,34.188 c 0.02,-1.244 0.53,-2.43 1.42,-3.3 0.45,-0.451 0.99,-0.809 1.58,-1.053 0.59,-0.244 1.23,-0.37 1.87,-0.37 0.64,0 1.27,0.126 1.86,0.37 0.59,0.244 1.13,0.602 1.58,1.053 0.89,0.87 1.41,2.056 1.42,3.3 -0.03,1.242 -0.54,2.424 -1.42,3.3 -0.45,0.451 -0.99,0.809 -1.58,1.053 -0.59,0.244 -1.22,0.37 -1.86,0.37 -0.64,0 -1.28,-0.126 -1.87,-0.37 -0.59,-0.244 -1.13,-0.602 -1.58,-1.053 -0.88,-0.876 -1.39,-2.058 -1.42,-3.3 z"
           fill="#2d5967"
           fill-rule="evenodd"
           fill-opacity="1"
           id="path560"
           style="fill:#000000" /></g></g><text
       xml:space="preserve"
       transform="scale(0.26458333)"
       id="text646"
       style="fill:#efedea;-inkscape-font-specification:'sans-serif, Bold';font-family:sans-serif;font-weight:bold;font-size:16px;text-align:center;white-space:pre;shape-inside:url(#rect648)" /><text
       xml:space="preserve"
       style="font-weight:bold;font-size:4.23333px;font-family:sans-serif;-inkscape-font-specification:'sans-serif, Bold';text-align:center;text-anchor:middle;fill:#000000;stroke-width:0.264583"
       x="29.921904"
       y="7.2215796"
       id="text654"><tspan
         sodipodi:role="line"
         id="tspan652"
         style="fill:#000000;stroke-width:0.264583"
         x="29.921904"
         y="7.2215796">OCI IoT Platform</tspan></text></g></svg>
